name Visual3d_SIMM_input.mot
datacolumns 42
datarows 14
range 1.540000 1.670000
endheader
time	pelvis_tx	pelvis_ty	pelvis_tz	pelvis_tilt	pelvis_list	pelvis_rotation	hip_flexion_r	hip_adduction_r	hip_rotation_r	knee_angle_r	ankle_angle_r	subtalar_angle_r	mtp_angle_r	hip_flexion_l	hip_adduction_l	hip_rotation_l	knee_angle_l	ankle_angle_l	subtalar_angle_l	mtp_angle_l	lumbar_extension	lumbar_bending	lumbar_rotation	ground_force_vx	ground_force_vy	ground_force_vz	ground_force_px	ground_force_py	ground_force_pz	ground_force_vx	ground_force_vy	ground_force_vz	ground_force_px	ground_force_py	ground_force_pz	ground_torque_x	ground_torque_y	ground_torque_z	ground_torque_x	ground_torque_y	ground_torque_z
1.540000	0.118868	0.784581	0.084345	-9.321083	1.664015	-11.089167	40.164938	9.792873	27.680197	-59.862278	28.847089	-0.000000	0.000000	21.338177	3.232127	7.240288	-70.701091	27.626766	-0.000000	0.000000	21.291066	0.515947	-6.735937	-26.141754	493.325287	-76.604324	0.120686	-0.010388	0.243157	2.634892	317.735657	42.293831	-0.053718	0.012788	-0.124050	0.034468	-1.825527	0.024896	0.001465	0.648695	-0.000557
1.550000	0.124936	0.783973	0.086833	-9.927557	2.310915	-11.189396	40.956987	8.942497	26.717409	-60.243839	29.090619	-0.000000	0.000000	22.089334	2.768742	5.143909	-70.592437	26.384712	-0.000000	0.000000	22.105931	0.386043	-6.363887	-30.100903	528.660706	-84.944351	0.123581	-0.010348	0.243973	0.723353	283.975708	38.092484	-0.051769	0.010004	-0.122653	0.036876	-1.953065	0.026635	0.001166	0.516541	-0.000444
1.560000	0.131107	0.783527	0.089265	-10.463670	2.844759	-11.202461	41.564290	8.210249	25.853543	-60.583730	29.367208	-0.000000	0.000000	22.777897	2.289100	3.217939	-70.640822	25.136863	-0.000000	0.000000	22.825092	0.325580	-6.095763	-31.736721	558.319275	-92.670387	0.125888	-0.010267	0.244727	-2.258975	249.842987	33.420528	-0.049888	0.007594	-0.121501	0.039711	-2.103224	0.028683	0.000811	0.359321	-0.000309
1.570000	0.137393	0.783342	0.091583	-10.882075	3.219101	-11.105358	41.877874	7.660011	25.163863	-60.850442	29.681775	-0.000000	0.000000	23.372658	1.796870	1.547025	-70.888293	23.925835	-0.000000	0.000000	23.387439	0.352613	-5.953502	-31.207878	582.430176	-99.352585	0.127605	-0.010181	0.245353	-5.876965	216.492020	28.558388	-0.047995	0.005809	-0.120689	0.043122	-2.283869	0.031146	0.000420	0.185773	-0.000160
1.580000	0.143781	0.783493	0.093786	-11.162472	3.438969	-10.911050	41.859012	7.303605	24.691048	-61.020855	30.021147	-0.000000	0.000000	23.859400	1.296329	0.115612	-71.308500	22.779630	-0.000000	0.000000	23.774519	0.456717	-5.907461	-29.042046	600.913879	-104.595375	0.128844	-0.010119	0.245845	-9.713096	184.985870	23.789131	-0.046032	0.004709	-0.120274	0.047190	-2.499321	0.034084	0.000014	0.006120	-0.000005
1.590000	0.150245	0.784020	0.095894	-11.304811	3.541543	-10.645498	41.519607	7.113932	24.447861	-61.083167	30.363657	-0.000000	0.000000	24.236680	0.795880	-1.147506	-71.835231	21.719018	-0.000000	0.000000	23.996567	0.608171	-5.908961	-25.811317	613.602234	-108.217781	0.129748	-0.010100	0.246240	-13.355625	156.125961	19.321564	-0.043955	0.004225	-0.120269	0.051997	-2.753936	0.037557	-0.000383	-0.169804	0.000146
1.600000	0.156754	0.784934	0.097914	-11.323327	3.581342	-10.330007	40.904394	7.036774	24.424085	-61.038648	30.689112	-0.000000	0.000000	24.514935	0.314679	-2.327363	-72.390580	20.763567	-0.000000	0.000000	24.080679	0.764604	-5.915571	-21.997662	620.501526	-110.190292	0.130456	-0.010120	0.246569	-16.429539	130.395538	15.254151	-0.041750	0.004217	-0.120660	0.057562	-3.048672	0.041576	-0.000752	-0.332914	0.000286
1.610000	0.163272	0.786207	0.099821	-11.244100	3.620728	-9.969345	40.080493	6.997680	24.589284	-60.901136	30.984839	-0.000000	0.000000	24.718559	-0.110566	-3.489040	-72.902810	19.932085	-0.000000	0.000000	24.064606	0.875748	-5.905761	-18.030201	621.900330	-110.566818	0.131100	-0.010162	0.246843	-18.688435	107.978127	11.595147	-0.039438	0.004523	-0.121436	0.063803	-3.379185	0.046084	-0.001077	-0.476824	0.000409
1.620000	0.169762	0.787782	0.101552	-11.103036	3.716933	-9.549243	39.127101	6.915937	24.895404	-60.692207	31.245930	-0.000000	0.000000	24.885707	-0.431728	-4.658457	-73.317655	19.241903	-0.000000	0.000000	23.991835	0.894466	-5.882741	-14.271119	618.426941	-109.486237	0.131804	-0.010204	0.247061	-20.046770	88.804764	8.300459	-0.037075	0.004994	-0.122608	0.070548	-3.736433	0.050956	-0.001351	-0.598405	0.000514
1.630000	0.176187	0.789581	0.103043	-10.940580	3.899349	-9.048991	38.118149	6.737537	25.285587	-60.430433	31.468597	-0.000000	0.000000	25.060750	-0.622526	-5.830074	-73.606865	18.714281	-0.000000	0.000000	23.903555	0.798208	-5.867410	-10.953858	611.033264	-107.201241	0.132674	-0.010226	0.247229	-20.539938	72.608543	5.311969	-0.034750	0.005507	-0.124232	0.077603	-4.110079	0.056051	-0.001574	-0.697170	0.000599
1.640000	0.182515	0.791533	0.104251	-10.792166	4.158823	-8.449711	37.106454	6.450867	25.698701	-60.124523	31.646633	-0.000000	0.000000	25.283011	-0.696528	-6.978368	-73.769479	18.375003	-0.000000	0.000000	23.828464	0.596859	-5.895404	-8.157883	600.857056	-104.070526	0.133777	-0.010218	0.247363	-20.265408	59.002949	2.602494	-0.032585	0.005974	-0.126387	0.084810	-4.491800	0.061257	-0.001748	-0.773897	0.000665
1.650000	0.188712	0.793574	0.105131	-10.680939	4.466213	-7.728611	36.123235	6.061335	26.067788	-59.778649	31.777257	-0.000000	0.000000	25.581743	-0.677970	-8.055821	-73.822993	18.239849	-0.000000	0.000000	23.778501	0.314098	-6.014779	-5.843804	589.034973	-100.495926	0.135138	-0.010176	0.247480	-19.321623	47.575005	0.215984	-0.030711	0.006333	-0.129184	0.092061	-4.875841	0.066494	-0.001871	-0.828322	0.000711
1.660000	0.194746	0.795651	0.105624	-10.618617	4.794026	-6.859973	35.187454	5.570037	26.327606	-59.400168	31.866073	-0.000000	0.000000	25.978585	-0.575583	-8.999279	-73.794136	18.302117	-0.000000	0.000000	23.753383	-0.028505	-6.266464	-3.920870	576.557800	-96.846161	0.136744	-0.010099	0.247609	-17.793158	37.982304	-1.721387	-0.029266	0.006551	-0.132813	0.099293	-5.258820	0.071717	-0.001938	-0.858280	0.000737
1.670000	0.200580	0.797707	0.105695	-10.610733	5.120020	-5.828151	34.311937	4.981760	26.429839	-59.000690	31.924526	-0.000000	0.000000	26.490730	-0.392344	-9.752435	-73.715322	18.535224	-0.000000	0.000000	23.747873	-0.410721	-6.664583	-2.292572	564.211731	-93.402092	0.138561	-0.009993	0.247789	-15.787200	30.029287	-3.061477	-0.028355	0.006615	-0.137555	0.106460	-5.638450	0.076894	-0.001944	-0.860639	0.000739
